HIERARCHY
ROOT Hips
{
	OFFSET -3.958830 18.904000 13.208200
	CHANNELS 6 Xposition Yposition Zposition Zrotation Yrotation Xrotation 
	JOINT LHipJoint
	{
		OFFSET 0.000000 0.000000 0.000000
		CHANNELS 3 Zrotation Yrotation Xrotation
		JOINT LeftUpLeg
		{
			OFFSET 1.800000 -1.400000 0.085000
			CHANNELS 3 Zrotation Yrotation Xrotation
			JOINT LeftLeg
			{
				OFFSET 2.215000 -6.000000 0.000000
				CHANNELS 3 Zrotation Yrotation Xrotation
				JOINT LeftFoot
				{
					OFFSET 2.500000 -6.900000 0.000000
					CHANNELS 3 Zrotation Yrotation Xrotation
					JOINT LeftToeBase
					{
						OFFSET 0.200000 -0.500000 1.950000
						CHANNELS 3 Zrotation Yrotation Xrotation
						End Site
						{
							OFFSET 0.000000 0.000000 0.000000
						}
					}
				}
			}
		}
	}
	JOINT RHipJoint
	{
		OFFSET 0.000000 0.000000 0.000000
		CHANNELS 3 Zrotation Yrotation Xrotation
		JOINT RightUpLeg
		{
			OFFSET -1.800000 -1.400000 0.085000
			CHANNELS 3 Zrotation Yrotation Xrotation
			JOINT RightLeg
			{
				OFFSET -2.215000 -6.000000 0.000000
				CHANNELS 3 Zrotation Yrotation Xrotation
				JOINT RightFoot
				{
					OFFSET -2.500000 -6.900000 0.000000
					CHANNELS 3 Zrotation Yrotation Xrotation
					JOINT RightToeBase
					{
						OFFSET -0.200000 -0.500000 1.950000
						CHANNELS 3 Zrotation Yrotation Xrotation
						End Site
						{
							OFFSET 0.000000 0.000000 0.000000
						}
					}
				}
			}
		}
	}
	JOINT LowerBack
	{
		OFFSET 0.000000 0.000000 0.000000
		CHANNELS 3 Zrotation Yrotation Xrotation
		JOINT Spine
		{
			OFFSET -0.087000 1.940000 -0.288900
			CHANNELS 3 Zrotation Yrotation Xrotation
			JOINT Spine1
			{
				OFFSET 0.000000 1.950000 0.060000
				CHANNELS 3 Zrotation Yrotation Xrotation
				JOINT Neck
				{
					OFFSET 0.000000 0.000000 0.000000
					CHANNELS 3 Zrotation Yrotation Xrotation
					JOINT Neck1
					{
						OFFSET 0.000000 1.600000 0.340000
						CHANNELS 3 Zrotation Yrotation Xrotation
						JOINT Head
						{
							OFFSET 0.000000 1.667000 -0.240000
							CHANNELS 3 Zrotation Yrotation Xrotation
							End Site
							{
								OFFSET 0.000000 0.000000 0.000000
							}
						}
					}
				}
				JOINT LeftShoulder
				{
					OFFSET 0.000000 0.000000 0.000000
					CHANNELS 3 Zrotation Yrotation Xrotation
					JOINT LeftArm
					{
						OFFSET 2.700000 1.550000 -0.730000
						CHANNELS 3 Zrotation Yrotation Xrotation
						JOINT LeftForeArm
						{
							OFFSET 5.450000 0.000000 0.000000
							CHANNELS 3 Zrotation Yrotation Xrotation
							JOINT LeftHand
							{
								OFFSET 3.450000 0.000000 0.000000
								CHANNELS 3 Zrotation Yrotation Xrotation
								JOINT LeftHandIndex1
								{
									OFFSET 0.750000 0.000000 0.000000
									CHANNELS 3 Zrotation Yrotation Xrotation
									End Site
									{
										OFFSET 0.000000 0.000000 0.000000
									}
								}
							}
						}
					}
				}
				JOINT RightShoulder
				{
					OFFSET 0.000000 0.000000 0.000000
					CHANNELS 3 Zrotation Yrotation Xrotation
					JOINT RightArm
					{
						OFFSET -2.700000 1.550000 -0.730000
						CHANNELS 3 Zrotation Yrotation Xrotation
						JOINT RightForeArm
						{
							OFFSET -5.450000 0.000000 0.000000
							CHANNELS 3 Zrotation Yrotation Xrotation
							JOINT RightHand
							{
								OFFSET -3.450000 0.000000 0.000000
								CHANNELS 3 Zrotation Yrotation Xrotation
								JOINT RightHandIndex1
								{
									OFFSET -0.750000 0.000000 0.000000
									CHANNELS 3 Zrotation Yrotation Xrotation
									End Site
									{
										OFFSET 0.000000 0.000000 0.000000
									}
								}
							}
						}
					}
				}
			}
		}
	}
}
MOTION
Frames: 14
Frame Time: 0.016667
1.345890 17.462950 1.046530 43.427998 -71.590542 -77.407928 -15.278641 11.530954 5.138690 4.199713 -11.918819 2.268298 -29.232977 41.145059 71.444439 2.854928 17.615003 -0.614995 -0.238540 -0.598470 -0.274770 18.337959 -10.517884 1.877903 -16.688744 -2.862420 15.617480 1.706421 -7.815496 13.372794 -1.039115 -5.884374 2.667966 -0.396710 0.549290 0.184550 -2.842042 -4.173380 -8.713528 -23.154194 9.796867 52.313669 3.957826 4.391490 4.762889 1.850681 -6.638173 -21.147980 -31.338280 25.521786 32.631312 -10.033980 18.418230 -18.297450 1.033828 -15.557215 9.579284 -19.744772 -0.755845 -17.015985 61.341060 -48.187654 -33.866227 -3.765627 2.166247 1.130810 0.018800 0.139370 0.204800 -0.652567 17.984544 15.677991 63.721342 -16.861272 -34.036757 172.623982 73.259899 149.197091 1.439170 -1.161183 -0.569710 0.622950 0.467200 -0.160960 
1.386050 17.456110 1.104620 67.991480 -76.664781 -103.577922 -16.032783 10.822543 5.443542 6.413657 -13.103339 -1.997232 -33.824124 48.033280 74.271035 3.063675 18.483683 -0.814186 -0.237690 -0.567400 -0.250530 17.709033 -10.381056 1.624442 -15.544881 -2.965507 15.710309 2.070487 -8.121195 15.188406 -0.999564 -6.107554 2.575749 -0.330860 0.592150 0.216960 -2.862363 -5.642242 -8.791777 -21.925882 8.618960 48.782314 1.174459 7.324697 16.482991 1.718438 -8.064275 -21.420422 -28.093944 24.455143 27.656081 -15.072230 20.607610 -18.565120 4.923133 -20.091054 10.205742 -17.862927 0.362975 -22.289778 63.963638 -52.909587 -40.509532 -4.129046 2.458196 1.011780 0.139480 0.078890 0.194900 -6.967178 24.959042 17.057922 65.037223 -9.493796 -33.757315 -169.328329 68.729181 166.487775 1.477545 -1.549794 -0.577030 0.597690 0.468580 -0.171390 
1.403430 17.457950 1.168850 114.756966 -74.939831 -150.789316 -16.815919 11.325243 6.020855 9.310900 -12.925584 -7.685813 -39.445232 55.321487 74.955206 3.111510 18.761927 -0.875548 -0.184360 -0.455070 -0.206680 17.007450 -9.350365 1.295896 -14.136580 -2.622991 15.141914 1.381452 -7.768140 16.906893 -0.905497 -5.942806 2.624448 -0.207670 0.670600 0.247140 -3.047525 -5.101575 -8.758560 -18.708116 8.116708 44.527388 -0.565047 9.896574 24.272960 0.367976 -8.782153 -20.558794 -25.610969 24.260857 24.828150 -16.470350 21.249070 -18.071240 10.777223 -22.912738 11.309798 -19.701780 -2.482182 -24.884875 66.369025 -57.316776 -47.296563 -4.257641 2.554568 0.883010 0.279460 0.029080 0.218360 -12.281483 27.968831 17.496698 62.721537 -4.441325 -30.621407 -160.226373 60.804224 175.702298 1.496850 -1.662953 -0.583690 0.635120 0.443560 -0.162990 
1.413930 17.445410 1.229810 142.095293 -65.566616 -178.050603 -16.016281 11.535729 6.484588 12.572969 -11.768786 -13.845613 -47.229028 60.574406 71.174052 2.925634 18.162539 -0.771269 -0.035290 -0.300990 -0.087220 17.778320 -8.945431 1.246516 -14.032223 -2.202526 14.261806 1.251920 -7.325482 16.411616 -0.883765 -5.700341 2.679424 -0.072800 0.628560 0.227740 -2.311916 -4.357240 -8.697054 -18.357643 8.409165 42.110029 -0.250739 10.831810 24.247148 -1.261853 -9.476223 -19.820745 -26.693811 25.816811 23.084140 -15.140290 21.038610 -20.012210 12.063711 -22.538306 10.828010 -20.208918 -3.113839 -24.187086 68.076174 -68.188769 -56.197898 -3.759063 1.887473 0.906980 0.254830 0.042990 0.245920 -10.656969 28.812505 17.605677 53.700950 -4.529945 -27.112293 -167.471102 59.343516 163.484826 1.444710 -1.574606 -0.603580 0.663400 0.363310 -0.195920 
1.390260 17.400390 1.264200 150.028410 -56.996099 175.696307 -15.821255 11.196879 7.170153 16.024485 -12.067012 -22.616773 -48.647853 66.179381 74.667973 3.115554 18.414776 -0.808730 0.093300 -0.143010 -0.093480 17.968939 -8.766410 1.099569 -14.086789 -1.801237 11.994882 1.536300 -7.070672 16.345926 -0.888807 -5.348388 2.790532 -0.027830 0.552400 0.201790 -1.957789 -4.479467 -8.945915 -21.350590 9.690266 40.517575 3.174082 10.208148 16.303021 -1.451736 -9.726762 -19.777539 -30.423947 29.702724 24.235770 -10.024990 21.439940 -22.079350 4.871051 -19.877700 8.631619 -16.291799 -0.551718 -19.063961 85.377307 -79.595420 -78.799829 -3.555219 -0.561222 0.990140 0.108040 0.124860 0.317220 -1.142668 28.533531 17.722713 38.746652 -9.856212 -22.043883 178.468477 59.056658 144.297780 1.566241 -1.348165 -0.546750 0.657030 0.285600 -0.151650 
1.352490 17.369500 1.289190 152.581244 -49.186560 175.533621 -15.811451 10.541550 7.847369 18.557635 -13.144320 -32.121633 -42.391421 70.980259 84.971491 3.652533 20.080678 -1.089364 0.222980 0.059010 -0.088880 18.040298 -8.674052 0.785618 -15.128213 -1.277673 8.583726 1.729925 -6.802814 16.615516 -0.831409 -5.079578 2.851251 0.070900 0.538160 0.225810 -2.045847 -4.098662 -9.131970 -24.007991 10.750286 36.736422 5.540195 10.051325 11.802971 -2.294261 -10.177242 -19.201299 -30.676869 30.565390 22.586952 -4.274550 20.703470 -21.776150 2.261157 -17.130522 9.176115 -14.379220 -2.357334 -12.226905 130.499930 -78.492461 -138.590047 -3.524149 3.244396 0.923850 0.081520 0.155720 0.381450 4.693883 26.645871 16.546483 28.725080 -10.859500 -16.464735 172.723390 56.266477 137.319822 1.691414 -1.419878 -0.455570 0.623390 0.204420 -0.082330 
1.315180 17.384220 1.355700 155.328696 -41.988068 172.573717 -15.791593 10.095782 8.329569 20.670731 -13.860121 -37.319719 -33.939454 73.150331 95.836202 4.194647 21.986860 -1.412088 0.269990 0.070950 -0.041820 18.087861 -8.546014 0.711538 -15.991517 -1.086830 8.092098 2.743258 -6.944131 15.887379 -0.852036 -5.001797 2.830131 0.032180 0.432970 0.243700 -1.936453 -3.904714 -9.330899 -25.323095 11.701385 36.350275 6.996164 10.361701 7.368005 -1.481001 -9.971025 -18.707920 -30.313735 29.721530 27.423606 -1.430570 19.354810 -23.133310 -1.996567 -17.918861 7.129209 -8.084999 -2.005003 -11.071074 -168.975503 -72.847966 151.872829 -3.299992 3.168059 0.975840 -0.024320 0.207710 0.356240 8.195189 27.757885 16.890317 20.912691 -12.004797 -14.257208 170.068816 55.504425 135.592843 1.789530 -1.450542 -0.391000 0.536380 0.178030 -0.092700 
1.271810 17.386260 1.418800 156.766129 -35.647243 171.732026 -15.800190 9.734624 8.564855 22.287138 -14.379462 -43.004273 -26.692630 73.550101 104.256217 4.693069 23.911346 -1.701208 0.228740 0.005620 -0.065380 18.091626 -8.523307 0.706959 -17.152829 -0.786034 6.928503 4.524300 -7.179316 14.683505 -0.811917 -4.955561 2.809549 -0.026730 0.397930 0.244180 -1.992756 -3.489125 -9.501659 -26.764507 12.504961 34.736345 8.195873 10.241513 3.605842 -1.181029 -9.662904 -18.077704 -27.417262 26.628019 31.996311 2.832610 16.964600 -23.067260 -4.591364 -17.900477 6.077208 -3.528492 -3.326296 -7.937888 -163.761148 -66.352387 143.645987 -3.314091 3.224062 0.983070 -0.070540 0.196100 0.306730 10.771451 27.809156 16.449522 15.098419 -10.700898 -11.883928 167.301794 55.338393 134.588258 1.867112 -1.459971 -0.368060 0.469700 0.208130 -0.100100 
1.223560 17.377130 1.493320 158.387981 -29.240832 170.871762 -15.857746 9.481921 8.784760 24.254374 -14.544811 -47.726079 -20.153005 73.672379 111.960897 5.069440 25.698419 -1.933657 0.159300 -0.157720 -0.078640 18.064981 -8.428009 0.703832 -17.552161 -0.561768 5.629380 6.161596 -7.388529 13.829997 -0.742545 -4.933249 2.786950 -0.108320 0.415850 0.262830 -1.921381 -3.330922 -9.643510 -27.239120 12.951203 33.259263 9.073573 10.277185 1.436675 -0.668525 -9.019628 -17.476874 -23.931527 21.852182 35.348815 4.904890 13.836580 -21.286560 -5.722736 -17.840951 5.333486 -1.453869 -5.632388 -5.646958 -163.934489 -60.810921 141.669855 -3.345101 3.321670 1.013510 -0.064170 0.131650 0.263180 11.049782 27.721674 16.114879 11.991706 -9.022606 -10.263569 166.671192 53.769313 134.319939 1.881426 -1.501416 -0.407810 0.405620 0.263830 -0.143530 
1.186140 17.373280 1.567670 159.242797 -22.598530 169.649815 -15.907040 9.477265 8.658124 23.651336 -13.658822 -50.686424 -26.396050 73.277180 104.131266 4.725896 24.533078 -1.786632 0.096690 -0.266590 -0.091020 18.023748 -8.459153 0.829230 -18.014459 -0.328649 5.411626 7.407074 -7.448533 12.320626 -0.707333 -5.007672 2.757537 -0.144810 0.470910 0.287500 -1.919870 -3.123402 -9.640115 -27.978691 13.896772 32.035284 9.348840 10.615222 0.920047 -0.805519 -7.392469 -16.161434 -18.299021 15.935159 37.156426 5.267160 10.661410 -21.015120 -5.678222 -17.758577 3.908459 1.199461 -9.278527 -4.025621 -162.790509 -55.560327 136.703228 -3.402502 3.378482 1.008160 -0.005550 0.076260 0.234530 10.751288 26.916500 15.744859 10.752812 -7.516645 -8.961402 166.972145 52.312317 134.597417 1.861258 -1.513180 -0.450330 0.402120 0.312560 -0.170420 
1.124620 17.404660 1.681300 161.002674 -15.236473 165.048953 -15.907038 9.615395 8.338183 21.745714 -13.191567 -50.396728 -28.909715 68.883661 98.099646 4.421087 23.575076 -1.719730 0.049180 -0.312420 -0.082010 17.986808 -8.619178 1.068235 -17.686824 -0.500571 7.717502 7.871549 -7.570627 11.033778 -0.770467 -5.218755 2.688036 -0.181280 0.434620 0.302700 -2.022909 -2.814092 -9.637817 -25.465501 14.152490 35.371849 7.554071 11.338633 0.400433 -0.298275 -5.495496 -16.127219 -14.332636 11.000050 41.332098 4.411230 8.126880 -22.077670 -6.805314 -19.673574 3.220992 5.899217 -9.689973 -3.954250 -163.729707 -52.200935 136.427587 -3.361721 3.406636 1.004820 0.001070 0.095270 0.181800 10.423396 28.263775 15.759379 8.593146 -5.619392 -9.048690 166.171856 52.872609 133.814163 1.844875 -1.476540 -0.435410 0.374410 0.332970 -0.189570 
1.052980 17.441640 1.783790 161.546642 -6.097358 159.807644 -15.895165 9.604302 8.171332 21.057450 -12.668317 -48.239732 -24.162937 66.189338 101.489799 4.358754 24.007491 -1.879402 0.082600 -0.289600 -0.019570 17.968809 -8.724903 1.183370 -18.177037 -0.617609 10.471227 7.676347 -7.772176 10.536770 -0.890829 -5.468170 2.589032 -0.155900 0.377070 0.300350 -2.164852 -2.454323 -9.671249 -23.072199 14.127810 38.677191 5.237176 12.299556 1.586630 0.090824 -4.818652 -16.566067 -13.243771 8.492567 45.490179 4.019380 6.283890 -26.441270 -6.289299 -20.753332 3.633445 7.963590 -6.901760 -4.694042 -165.152286 -50.992755 136.663171 -3.268545 3.347710 1.107020 -0.045370 0.152910 0.152560 8.635176 30.285032 15.264616 6.278107 -1.735286 -10.363685 164.858588 54.229314 131.773443 1.750517 -1.393483 -0.464030 0.415120 0.338400 -0.238370 
0.978980 17.482400 1.879200 162.248351 0.981370 156.070270 -15.922929 9.805590 7.898956 19.798182 -13.536328 -46.835813 -20.273157 62.397269 103.722743 4.308805 24.226588 -1.974955 0.094390 -0.287100 0.026540 17.913874 -8.715563 1.331627 -18.023889 -0.826203 12.484168 8.519471 -8.048085 9.731527 -1.017503 -5.615454 2.519033 -0.174560 0.324030 0.330340 -2.121419 -2.618528 -9.691572 -22.325362 14.009925 41.597408 5.044066 12.506115 1.302659 0.723509 -4.036664 -17.157792 -12.360104 5.997275 49.706096 4.163450 4.377470 -31.625870 -7.073899 -21.892285 3.964561 10.149627 -4.993517 -4.922200 -165.082494 -49.843856 135.080212 -3.179239 3.318694 1.208520 -0.103230 0.241930 0.133010 8.078173 31.524031 15.174712 3.320815 -0.656371 -10.834923 166.094912 53.119578 132.996595 1.716838 -1.360545 -0.460180 0.437990 0.339310 -0.259290 
0.900190 17.479130 1.961140 161.867306 6.376363 153.995397 -15.956522 10.294734 7.341671 14.866014 -16.408554 -45.551025 -25.673263 57.049052 93.575965 4.042477 22.807902 -1.726922 0.083090 -0.264680 -0.003940 17.836412 -8.749156 1.457926 -18.631484 -0.826839 13.023067 9.548825 -8.246523 9.232858 -1.021515 -5.751854 2.497101 -0.192760 0.340730 0.333500 -1.961403 -3.204646 -9.504585 -24.644534 14.651906 41.945678 7.041115 11.786928 1.927344 0.520015 -2.972105 -16.550099 -9.824759 2.844884 47.592394 5.503270 2.052910 -30.082820 -6.456411 -22.357355 4.496898 12.330426 -3.773029 -4.784734 -168.269338 -47.465372 139.945035 -3.115676 3.444927 1.112530 -0.076370 0.227380 0.162670 7.507166 31.278907 14.284240 -0.230486 0.417790 -10.607987 170.221804 52.485029 141.829034 1.735956 -1.463526 -0.405380 0.395330 0.288780 -0.203920 
